<svg id="eUcEnh3qktX1" xmlns="http://www.w3.org/2000/svg" xmlns:xlink="http://www.w3.org/1999/xlink" viewBox="0 0 300 300" shape-rendering="geometricPrecision" text-rendering="geometricPrecision"><rect width="19.379845" height="114.453412" rx="0" ry="0" transform="matrix(.1032 0 0 0.542957 0 0)" fill="#fff" stroke-width="0"/><rect width="19.379845" height="115.497575" rx="0" ry="0" transform="matrix(.1032 0 0 0.90911 5.044253 62.220779)" fill="#fff" stroke-width="0"/><rect width="19.379845" height="115.497575" rx="0" ry="0" transform="matrix(.000073-.1032 1.434133 0.00102 67.138034 6.183315)" fill="#fff" stroke-width="0"/><rect width="19.379845" height="115.497575" rx="0" ry="0" transform="matrix(.000073-.1032 1.434133 0.00102 67.179869 294.515605)" fill="#fff" stroke-width="0"/><rect width="19.379845" height="115.497575" rx="0" ry="0" transform="matrix(.1032 0 0 0.90911 292.9705 132.856717)" fill="#fff" stroke-width="0"/><rect width="19.379845" height="114.453412" rx="0" ry="0" transform="matrix(.1032 0 0 1.159315 0.029502 167.22078)" fill="#fff" stroke-width="0"/><rect width="19.379845" height="114.453412" rx="0" ry="0" transform="matrix(.1032 0 0 1.159315 298-.091662)" fill="#fff" stroke-width="0"/><rect width="19.379845" height="114.453412" rx="0" ry="0" transform="matrix(.1032 0 0 0.542957 297.9941 237.856718)" fill="#fff" stroke-width="0"/><rect width="19.379845" height="114.453412" rx="0" ry="0" transform="matrix(.000304-.1032 0.542955 0.001602 2.029502 1.999992)" fill="#fff" stroke-width="0"/><rect width="19.379845" height="114.453412" rx="0" ry="0" transform="matrix(.000304-.1032 0.542955 0.001602 2.035403 299.816676)" fill="#fff" stroke-width="0"/><rect width="19.379845" height="114.453412" rx="0" ry="0" transform="matrix(.000304-.1032 0.542955 0.001602 235.851089 1.999992)" fill="#fff" stroke-width="0"/><rect width="19.379845" height="114.453412" rx="0" ry="0" transform="matrix(.000304-.1032 0.542955 0.001602 235.845189 299.633352)" fill="#fff" stroke-width="0"/></svg>
